<svg height="285" viewBox="0 0 461 285" width="461" xmlns="http://www.w3.org/2000/svg" xmlns:xlink="http://www.w3.org/1999/xlink"><filter id="a" height="169.4%" width="169.4%" x="-35.9%" y="-35.9%"><feOffset dx="0" dy="2" in="SourceAlpha" result="shadowOffsetOuter1"/><feGaussianBlur in="shadowOffsetOuter1" result="shadowBlurOuter1" stdDeviation="2"/><feColorMatrix in="shadowBlurOuter1" result="shadowMatrixOuter1" type="matrix" values="0 0 0 0 0   0 0 0 0 0   0 0 0 0 0  0 0 0 0.5 0"/><feMerge><feMergeNode in="shadowMatrixOuter1"/><feMergeNode in="SourceGraphic"/></feMerge></filter><filter id="b" height="155.9%" width="152.8%" x="-26.7%" y="-29.5%"><feOffset dx="0" dy="2" in="SourceAlpha" result="shadowOffsetOuter1"/><feGaussianBlur in="shadowOffsetOuter1" result="shadowBlurOuter1" stdDeviation="2"/><feColorMatrix in="shadowBlurOuter1" result="shadowMatrixOuter1" type="matrix" values="0 0 0 0 0   0 0 0 0 0   0 0 0 0 0  0 0 0 0.5 0"/><feMerge><feMergeNode in="shadowMatrixOuter1"/><feMergeNode in="SourceGraphic"/></feMerge></filter><filter id="c" height="142.9%" width="142.2%" x="-22.1%" y="-21.4%"><feOffset dx="0" dy="2" in="SourceAlpha" result="shadowOffsetOuter1"/><feGaussianBlur in="shadowOffsetOuter1" result="shadowBlurOuter1" stdDeviation="2"/><feColorMatrix in="shadowBlurOuter1" result="shadowMatrixOuter1" type="matrix" values="0 0 0 0 0   0 0 0 0 0   0 0 0 0 0  0 0 0 0.5 0"/><feMerge><feMergeNode in="shadowMatrixOuter1"/><feMergeNode in="SourceGraphic"/></feMerge></filter><g fill="none" fill-rule="evenodd" transform="translate(0 2)"><g transform="translate(239.332214 32.147276)"><g stroke-width="3"><rect fill="#ddf0e4" height="128" rx="5" stroke="#000" width="178.973451"/><g fill-rule="nonzero" stroke-linecap="round"><g transform="translate(153.002147 104.940224)"><path d="m1.39797082 1.56802409h36.52288728" stroke="#c97373"/><path d="m56.8379708 1.39873659h8.7523279" stroke="#c97373"/><path d="m43.0812215 1.52940365h8.8689263" stroke="#ffa42c"/></g><g transform="translate(153.994654 114.440224)"><path d="m.40546414 1 5.00625926-.03862045" stroke="#c97373"/><path d="m10.4117234 1 40.5459177-.03862045" stroke="#ffa42c"/></g><g transform="translate(152.994654 95.940224)"><path d="m31.4117234 1.52940365h35.443846" stroke="#c97373"/><path d="m1.4715201 1.52940365h17.9402033" stroke="#ffa42c"/></g></g><path d="m5.3 0h169.4c2.650967 0 4.8 2.1490332 4.8 4.8v12.2h-179v-12.2c0-2.6509668 2.1490332-4.8 4.8-4.8z" fill="#a0a0a0" stroke="#000"/></g><g fill-rule="nonzero"><circle cx="8.6" cy="8.1" fill="#ffc5d3" r="2.1"/><circle cx="14.882908" cy="8.1" fill="#fcf3b0" r="2.1"/><circle cx="20.773134" cy="8.1" fill="#83ffcd" r="2.1"/></g><g fill-rule="nonzero"><ellipse cx="112.988235" cy="52" fill="#fff" rx="11.488235" ry="15.5" stroke="#000" stroke-width="2.5"/><ellipse cx="146.93179" cy="52" fill="#fff" rx="11.488235" ry="15.5" stroke="#000" stroke-width="2.5"/><g transform="translate(101.5 36.793243)"><g fill="#000"><ellipse cx="8.839189" cy="14.913514" rx="7.917568" ry="14.075676"/><path d="m16.3760728 15.2051276c-.0110975 2.6760632-.4106093 5.3635139-1.3982912 7.857377-.6991456 1.7878379-1.7867054 3.6326134-3.39585 4.7030386-1.331706.8882252-2.92975305 1.0704253-4.3613369.2960751-1.67572994-.8996127-2.80767996-2.6077382-3.59560596-4.3272511-2.15292455-4.6802636-2.2306074-10.6017651-.62146276-15.46422875 1.03207208-3.10878825 3.717679-7.57268934 7.55743102-6.1720265 1.9642662.71741267 3.2737771 2.72161316 4.1282883 4.56638861 1.2096329 2.64190065 1.67573 5.62542634 1.6868275 8.52923954 0 1.0248753 1.5536569 1.0248753 1.5536569 0-.0110975-2.9949132-.4993897-6.00121392-1.6535348-8.7683771-.8656089-2.0725255-2.1751197-4.122276-4.1060932-5.30657629-1.680816-1.05040621-3.76637841-1.15333463-5.53767711-.27330007-1.95316867.95655024-3.36255742 2.91520071-4.28365401 4.86246369-2.44146084 5.16992627-2.63011917 11.76329037-.7435358 17.14957917 1.34280346 3.8148134 4.68316578 8.5520146 9.25535612 7.0033142 2.3193877-.7857377 3.9729226-2.8924257 5.0271898-5.0560512 1.4426814-2.9721382 2.0197539-6.3200641 2.0308515-9.6110524.0221951-1.0134877-1.5314618-1.0134877-1.5425594.0113875z"/><ellipse cx="42.855405" cy="14.913514" rx="7.917568" ry="14.075676"/><path d="m50.3913957 15.19375c-.0111039 2.6740271-.4108454 5.359433-1.3990952 7.8513987-.6995476 1.7864776-1.7877328 3.6298495-3.3978027 4.6994603-1.3324717.8875494-2.9314376 1.0696108-4.3638446.2958498-1.6766935-.8989282-2.8092944-2.605754-3.5976735-4.3239587-2.1541625-4.6767026-2.23189-10.5936987-.6218201-15.45246275 1.0326655-3.10642293 3.7198167-7.56692766 7.5617766-6.16733051 1.9653957.71686683 3.2756594 2.71954242 4.1306621 4.56291427 1.2103284 2.63989055 1.6766935 5.62114629 1.6877974 8.52275009 0 1.0240955 1.5545502 1.0240955 1.5545502 0-.0111039-2.9926345-.4996768-5.99664792-1.6544856-8.7617057-.8661065-2.07094862-2.1763703-4.11913957-4.1084542-5.30253878-1.6817824-1.049607-3.768544-1.15245711-5.5408612-.27309213-1.9542918.95582244-3.3644909 2.91298268-4.2861172 4.85876408-2.4317607 5.18875043-2.6205275 11.77709793-.7328594 17.15928863 1.3435756 3.8119109 4.6858586 8.5455077 9.2606779 6.9979857 2.3207215-.7851399 3.9752071-2.890225 5.0300805-5.0522043 1.4435109-2.9698769 2.0209153-6.3152555 2.0320192-9.6037398 0-1.0354743-1.5545502-1.0354743-1.5545502-.0113789z"/></g><path d="m34.3513514 14.2571567s7.0323863-2.0030083 7.1850273-12.83283238c0 0-1.0466808 11.33906348 6.8906483 11.38432918 0 0-7.0323863 4.9565967-6.8906483 15.5940492.0109029.0113087 1.3955743-12.35755-7.1850273-14.145546z" fill="#ffe100"/><path d="m34.1389577 15.6026637c.9631409-.2682522 1.8819995-.8271109 2.6790816-1.4306784 1.9705642-1.4977414 3.3543874-3.5655187 4.1846813-5.8903711.6974468-1.94482842.9631409-4.03496011 1.0074232-6.10273745.0221412-1.02830009-1.4613172-.98359139-1.5498819 0-.1217765 1.36361532-.0332118 2.77193935.1660588 4.1243775.3431881 2.35838389 1.2066938 4.85089385 3.0997638 6.38216685 1.2841879 1.0506544 2.8672816 1.4977414 4.5057282 1.5200958l-.3874704-1.4530328c-.9852821.6706305-1.8487878 1.5536273-2.6126582 2.4589785-1.7983109 2.1119632-3.133865 4.5840538-3.9189872 7.2539864-.592412 2.0658421-.8759932 4.2094117-.8413644 6.3598125.0110705 1.0283001 1.439176.9724142 1.5498819 0 .1660588-1.4642099.1107059-2.9731285-.0664235-4.4261612-.321047-2.7719394-1.1624115-5.6109418-3.0886933-7.6898963-1.2509761-1.3524381-2.9226345-2.2354349-4.7160693-2.6042817-.9742115-.2011892-1.3948938 1.3077294-.4096117 1.5089186 2.7897875.5812131 4.7935634 2.49251 5.8009867 5.1526776.8081527 2.1348404 1.0517056 4.3255666 1.0184938 6.5945331-.0110705.4917957-.0221411.9835914-.0774941 1.4753871h1.549882c-.0553529-5.2979809 1.9041407-10.5736074 5.8784808-14.127949l.3542587-.3017837c.0774941-.067063.3653293-.2906065.1439176-.1229489l.2435529-.1788348c.6199528-.4247327.4096116-1.4530327-.3874705-1.4530327-1.2177644-.0111772-2.4244582-.3129609-3.4097403-1.0730088s-1.4170349-1.5200958-1.8377171-2.49251001c-.774941-1.75481645-.9963527-3.66611335-1.0074233-5.57741024 0-.44708699 0-.89417399.0442824-1.3300838h-1.549882c-.0553529 3.00666002-.6753057 6.06920592-2.4355287 8.55053875-.9136172 1.3333868-2.158159 2.4010471-3.6090108 3.0960774-.0774941.0335315-.4649646.2011892-.1992706.0894174l-.2546234.1005946-.2324823.0782402c-1.0074233.2682522-.5978116 1.7771708.3653293 1.5089186z" fill="#000"/><path d="m1.50810811 14.2571603s7.03238637-2.0030087 7.18502732-12.83283598c0 0-1.04668076 11.33906678 6.89064837 11.38433248 0 0-7.03238639 4.9565981-6.89064837 15.5940459 0 0 1.17751586-12.8215196-7.18502732-14.1455424z" fill="#fff"/><path d="m1.50810811 14.2571603s7.03238637-2.0030087 7.18502732-12.83283598c0 0-1.04668076 11.33906678 6.89064837 11.38433248 0 0-7.03238639 4.9565981-6.89064837 15.5940459 0 0 1.17751586-12.8215196-7.18502732-14.1455424z" fill="#ffe100"/><path d="m1.29562976 14.4276068c.9631464-.2682128 1.88201021-.8269894 2.67909689-1.4304681 1.9705754-1.4975213 3.35440644-3.56499469 4.18470506-5.88950535.69745084-1.94454257.9631464-4.03436706 1.00742899-6.10184048.0221413-1.02814895-1.46132557-.98344682-1.54989076 0-.12177713 1.3634149-.03321194 2.77153194.16605973 4.12377131.34319009 2.35803726 1.20670066 4.85018089 3.09978153 6.38122882 1.2841952 1.0505 2.8672979 1.4975212 4.5057538 1.5198723l-.3874726-1.4528191c-.9852877.6705319-1.8487983 1.5533989-2.612673 2.458617-1.7983212 2.1116528-3.13388288 4.5833801-3.91900954 7.2529203-.59241538 2.0655384-.8759982 4.2087929-.84136927 6.3588777.01107065 1.0281489 1.46132558.9834468 1.54989076 0 .12237908-1.516134.08154808-3.0411938-.12177713-4.5484415-.35426074-2.793883-1.17348872-5.6995214-3.14406412-7.7781703-1.23126425-1.2827665-2.84506488-2.1228273-4.59431904-2.3915639-.42068464-.0670532-.83029862.1117553-.95207575.5476011-.12177714.4358457.13284777.8940426.54246176.9610957 5.47997091.8828671 6.79737806 7.0182342 6.78630741 11.7231331 0 .502899-.01107065 1.0057979-.05535324 1.4975213h1.54989076c-.05535324-5.2972022 1.9041515-10.5720533 5.8785142-14.1258724l.3542608-.3017394c.0774945-.0670532.3653314-.2905638.1439184-.1229309l.2435543-.1788085c.6199563-.4246702.409614-1.4528191-.3874727-1.4528191-1.2177713-.0111756-2.424472-.3129149-3.4097597-1.0728511-.9852877-.75993619-1.417043-1.51987236-1.8377276-2.49214365-.77494538-1.75455852-.99635835-3.6655745-1.007429-5.57659047 0-.44702128 0-.89404256.0442826-1.32988831h-1.54989076c-.05535325 3.00621811-.67530955 6.06831388-2.43554263 8.54928199-.91362239 1.33319084-2.1581712 2.40069424-3.60903135 3.09562234-.07749454.0335266-.46496723.2011596-.19927167.0894043l-.25462491.1005798-.23248361.0782287c-1.007429.2682128-.60888566 1.7769096.36533139 1.5086968z" fill="#000"/></g></g><path d="m117 77.0875c0 6.073515 3.240182 11.6856743 8.5 14.7224319 5.259818 3.0367575 11.740182 3.0367575 17 0 5.259818-3.0367576 8.5-8.6489169 8.5-14.7224319z" fill="#ef4136" fill-rule="nonzero" stroke="#000" stroke-width="2"/></g><g transform="translate(34.859551)"><g fill-rule="nonzero"><rect fill="#084faf" height="127.326054" rx="5" stroke="#000" stroke-width="3" width="94" x=".070225"/><circle cx="32.640449" cy="88.5875" fill="#fff" r="5"/><rect fill="#c3c3c3" height="5.5" rx="2" width="23.8" x="27.640449" y="103.5875"/><g fill="#ff7171" transform="translate(15.340467 23.5875)"><path d="m7.87851941 1.78841856c2.37575349 0 4.30168229 1.92592876 4.30168229 4.30168229v4.80977465c0 2.3757535-1.9259288 4.3016823-4.30168229 4.3016823-2.37575352 0-4.30168228-1.9259288-4.30168228-4.3016823v-4.80977465c0-2.37575353 1.92592876-4.30168229 4.30168228-4.30168229z" transform="matrix(.75470958 .65605903 -.65605903 .75470958 7.505739 -3.085034)"/><path d="m23.1713722 1.78841856c2.3757535 0 4.3016823 1.92592876 4.3016823 4.30168229v4.80977465c0 2.3757535-1.9259288 4.3016823-4.3016823 4.3016823-2.3757536 0-4.3016823-1.9259288-4.3016823-4.3016823v-4.80977465c0-2.37575353 1.9259287-4.30168229 4.3016823-4.30168229z" transform="matrix(.75470958 .65605903 -.65605903 .75470958 11.256929 -13.118049)"/><path d="m38.37293 1.78841856c2.3757535 0 4.3016822 1.92592876 4.3016822 4.30168229v4.80977465c0 2.3757535-1.9259287 4.3016823-4.3016822 4.3016823-2.3757536 0-4.3016823-1.9259288-4.3016823-4.3016823v-4.80977465c0-2.37575353 1.9259287-4.30168229 4.3016823-4.30168229z" transform="matrix(.75470958 .65605903 -.65605903 .75470958 14.985726 -23.091168)"/><path d="m53.5744877 1.78841856c2.3757536 0 4.3016823 1.92592876 4.3016823 4.30168229v4.80977465c0 2.3757535-1.9259287 4.3016823-4.3016823 4.3016823-2.3757535 0-4.3016822-1.9259288-4.3016822-4.3016823v-4.80977465c0-2.37575353 1.9259287-4.30168229 4.3016822-4.30168229z" transform="matrix(.75470958 .65605903 -.65605903 .75470958 18.714522 -33.064287)"/></g><g fill="#ffd04a" transform="translate(28.871221 39.592512)"><path d="m7.87851941 1.78841856c2.37575349 0 4.30168229 1.92592876 4.30168229 4.30168229v4.80977465c0 2.3757535-1.9259288 4.3016823-4.30168229 4.3016823-2.37575352 0-4.30168228-1.9259288-4.30168228-4.3016823v-4.80977465c0-2.37575353 1.92592876-4.30168229 4.30168228-4.30168229z" transform="matrix(.75470958 .65605903 -.65605903 .75470958 7.505739 -3.085034)"/><path d="m23.0800772 1.78841856c2.3757535 0 4.3016823 1.92592876 4.3016823 4.30168229v4.80977465c0 2.3757535-1.9259288 4.3016823-4.3016823 4.3016823s-4.3016823-1.9259288-4.3016823-4.3016823v-4.80977465c0-2.37575353 1.9259288-4.30168229 4.3016823-4.30168229z" transform="matrix(.75470958 .65605903 -.65605903 .75470958 11.234535 -13.058154)"/><path d="m38.281635 1.78841856c2.3757535 0 4.3016823 1.92592876 4.3016823 4.30168229v4.80977465c0 2.3757535-1.9259288 4.3016823-4.3016823 4.3016823s-4.3016823-1.9259288-4.3016823-4.3016823v-4.80977465c0-2.37575353 1.9259288-4.30168229 4.3016823-4.30168229z" transform="matrix(.75470958 .65605903 -.65605903 .75470958 14.963332 -23.031273)"/></g><g fill="#83ffcd" transform="translate(39.957542 55.597524)"><path d="m7.87851941 1.78841856c2.37575349 0 4.30168229 1.92592876 4.30168229 4.30168229v4.80977465c0 2.3757535-1.9259288 4.3016823-4.30168229 4.3016823-2.37575352 0-4.30168228-1.9259288-4.30168228-4.3016823v-4.80977465c0-2.37575353 1.92592876-4.30168229 4.30168228-4.30168229z" transform="matrix(.75470958 .65605903 -.65605903 .75470958 7.505739 -3.085034)"/><path d="m23.0800772 1.78841856c2.3757535 0 4.3016823 1.92592876 4.3016823 4.30168229v4.80977465c0 2.3757535-1.9259288 4.3016823-4.3016823 4.3016823s-4.3016823-1.9259288-4.3016823-4.3016823v-4.80977465c0-2.37575353 1.9259288-4.30168229 4.3016823-4.30168229z" transform="matrix(.75470958 .65605903 -.65605903 .75470958 11.234535 -13.058154)"/></g><path d="m37.6653952 96.1472765 2.3707517 4.4999995 10.3956975-9.2460624" stroke="#c3c3c3" stroke-linecap="round" stroke-width="2.5"/></g><path d="m4.87022472 1h84.39999998c2.6509668 0 4.8 2.1490332 4.8 4.8v12.2h-93.99999998v-12.2c0-2.6509668 2.1490332-4.8 4.8-4.8z" fill="#a0a0a0" stroke="#000" stroke-width="3"/><g fill-rule="nonzero"><circle cx="10.819571" cy="10.0125" fill="#ffc5d3" r="2.1"/><circle cx="17.102479" cy="10.0125" fill="#fcf3b0" r="2.1"/><circle cx="22.992705" cy="10.0125" fill="#83ffcd" r="2.1"/></g></g><g fill-rule="nonzero" stroke-linecap="round" stroke-width="3"><g transform="translate(1.455321 73)"><path d="m.39797082 1.56802409 28.88529998-.1692875" stroke="#9588ea"/><path d="m55.8379708 1.39873659h8.7523279" stroke="#9588ea"/><path d="m39.2832708 1.39873659 11.666877.13066706" stroke="#fcf3b0"/></g><g transform="translate(1.447828 82.5)"><path d="m.40546414 1 21.88530006-.03862045" stroke="#9588ea"/><path d="m29.2818677.6307125h23.3598491" stroke="#fcf3b0"/></g><g transform="translate(.447828 64)"><path d="m28.6944016 1.52940365h38.1611678" stroke="#9588ea"/><path d="m1.4715201 1.52940365h22.0409604" stroke="#fcf3b0"/></g></g><ellipse cx="213.332214" cy="261.522096" fill="#ffcece" rx="74.355831" ry="19.477905" stroke="#000" stroke-width="3"/><rect fill="#ffcece" height="165.562188" rx="5" stroke="#000" stroke-width="3" width="228.865377" x="98.899526" y="72.40858"/><path d="m188.376149 237.970768h49.91213l-4.528067 23.536303c-.090577.470805-.502553.811078-.981992.811078h-39.831378c-.494091 0-.914119-.36085-.98858-.849298z" fill="#ffcece" stroke="#000" stroke-width="3"/><g fill-rule="nonzero"><rect fill="#6338c2" height="132.127962" rx="5" stroke="#000" stroke-width="3" width="205.170104" x="108.921109" y="87.908324"/><path d="m214.221498 102.173253h97.998207v112.984834c0 1.656855-1.343146 3-3 3h-94.998207z" fill="#ffe565"/><path d="m108.921109 104.386229h205.170104v-12.9779047c0-1.9329967-1.567004-3.5-3.5-3.5h-198.170104c-1.932997 0-3.5 1.5670033-3.5 3.5z" fill="#a0a0a0" stroke="#000" stroke-width="3"/><g stroke-linecap="round" stroke-width="3"><g transform="translate(120.928755 130.948814)"><path d="m1.70184638 1.90886397h44.46183182" stroke="#fff"/><path d="m69.1927854 1.7027786h10.6548129" stroke="#fff"/><path d="m52.4457448 1.86184863h10.7967562" stroke="#83ffcd"/></g><g transform="translate(122.137002 142.87903)"><path d="m.49359949 1.21736903h24.58151461" stroke="#fff"/><path d="m33.5966973 1.17035369h28.4375568" stroke="#83ffcd"/></g><g transform="translate(121.919633 154.591878)"><path d="m22.6312309.86184863h32.8689638" stroke="#fff"/><path d="m.791383.86184863h15.7530027" stroke="#83ffcd"/></g><g transform="translate(121.919633 165.304725)"><path d="m12.8922786.86184863h67.4956211" stroke="#fff"/><path d="m.791383.86184863h6.01405049" stroke="#83ffcd"/></g><g transform="translate(121.919633 175.017573)"><path d="m40.8917663 1.86184863h17.0431664" stroke="#fff"/><g stroke="#83ffcd"><path d="m.791383 1.86184863h35.2309072"/><path d="m63.9044035 1.57783257h7.4215885"/></g></g><path d="m.791383.86184863h68.099871" stroke="#83ffcd" transform="translate(121.919633 186.73042)"/></g><g><circle cx="117.432214" cy="95.747276" fill="#ffc5d3" r="2.1"/><circle cx="123.715122" cy="95.747276" fill="#fcf3b0" r="2.1"/><circle cx="129.605348" cy="95.747276" fill="#83ffcd" r="2.1"/></g><g filter="url(#a)" transform="translate(288.809094 164.319942)"><circle cx="19.192988" cy="19.192988" fill="#7961ff" r="19.192988" stroke="#222" stroke-linecap="round" stroke-linejoin="round" stroke-width="2.4"/><path d="m24.0192953 8.30573763c5.5221639 1.6542504 8.6332337 7.38072077 6.9514288 12.79532557" stroke="#fff" stroke-linecap="round" stroke-linejoin="round" stroke-width="2.08"/><path d="m18.9685089 6.95886126c1.3468764 0 1.3468764-2.02031456 0-2.02031456s-1.3468764 2.02031456 0 2.02031456z" fill="#fff"/></g><g filter="url(#b)" stroke="#222" stroke-linecap="round" stroke-linejoin="round" stroke-width="2.4" transform="translate(223.679851 129.171649)"><path d="m24.6053999 46.6610805-11.8253926-6.8772554-.8394302-19.2458313 15.8281648-20.5379938 11.9133036 7.20227872 12.6648228 26.11211978z" fill="#59ca72"/><path d="m4.86947612 5.24463199h30.80979698v29.29456111h-30.80979698z" fill="#89ffa4" transform="matrix(.90031877 -.4352311 .4352311 .90031877 -6.636605 10.806889)"/><path d="m40.2249809 26.4579349 12.1218874 6.5660223"/></g><g filter="url(#c)" stroke="#222" stroke-linecap="round" stroke-linejoin="round" stroke-width="2.4" transform="translate(246.882545 50)"><path d="m24.2725564 10.0350018 31.6959805 23.3317634-12.6133159 23.3317634" fill="#f7941e" transform="matrix(.95105652 .30901699 -.30901699 .95105652 12.274537 -10.764845)"/><path d="m6.53734434 51.9372663 18.51233716-46.66352675 19.3467506 46.66352675z" fill="#ffd097" transform="matrix(.95105652 .30901699 -.30901699 .95105652 10.086025 -6.469648)"/></g></g></g></svg>